<svg version="1.2" baseProfile="tiny-ps" xmlns="http://www.w3.org/2000/svg" viewBox="0 0 90 90" width="90" height="90">
	<title>Group 7</title>
	<style>
		tspan { white-space:pre }
		.shp0 { fill: #ffffff } 
	</style>
	<g id="Group 7">
		<g id="Text">
			<g id="Icon">
				<path id="Icon" class="shp0" d="M86.27 21.69L90 17.96L72.04 0L68.31 3.73L70.94 6.35L61.62 15.67L52.03 6.09L48.3 9.82L53.55 15.06L12.13 56.48L16.55 60.89L7.72 69.72L12.13 74.14L0 86.27L3.73 90L15.86 77.87L20.28 82.28L29.11 73.45L33.52 77.87L74.94 36.45L80.18 41.7L83.91 37.97L74.33 28.38L83.65 19.06L86.27 21.69ZM20.28 74.82L15.18 69.72L20.28 64.62L25.38 69.72L20.28 74.82ZM33.52 70.41L19.59 56.48L24.92 51.15L28.13 54.37L31.86 50.64L28.65 47.42L32.42 43.65L35.63 46.87L39.36 43.14L36.15 39.92L39.92 36.15L53.85 50.08L33.52 70.41ZM57.58 46.35L43.65 32.42L47.42 28.65L50.63 31.86L54.36 28.13L51.15 24.92L57.28 18.79L71.21 32.72L57.58 46.35ZM70.6 24.65L65.35 19.4L74.67 10.08L79.92 15.33L70.6 24.65Z" />
			</g>
		</g>
	</g>
</svg>