<svg version="1.2" baseProfile="tiny-ps" xmlns="http://www.w3.org/2000/svg" viewBox="0 0 75 88" width="75" height="88">
	<title>Group 7</title>
	<style>
		tspan { white-space:pre }
		.shp0 { fill: #ffffff } 
	</style>
	<g id="Group 7">
		<g id="Text">
			<g id="Icon">
				<path id="Icon" class="shp0" d="M11.42 46.06C11.58 47.84 12.58 49.51 14.25 50.44C15.63 51.22 17.06 51.79 18.52 52.18C17.7 54.96 16.19 58.99 13.5 63.3C10.94 67.4 10.91 72.34 13.42 76.87C17.11 83.53 25.25 88.02 33.69 88.02C39.49 88.02 44.64 85.34 48.2 80.48C53.29 73.54 54.41 63.29 51.21 53.07C48.25 43.6 52.21 38.55 54.84 36.37C56.98 38.44 59.88 39.72 63.09 39.72C69.67 39.72 75 34.37 75 27.78C75 21.19 69.67 15.85 63.09 15.85C56.51 15.85 51.18 21.19 51.18 27.78C51.18 28.71 51.3 29.61 51.5 30.47C46.54 34.11 40.82 42.29 44.82 55.08C47.35 63.15 46.57 71.36 42.8 76.51C41.2 78.7 38.32 81.3 33.69 81.3C27.71 81.3 21.78 78.14 19.27 73.61C18.35 71.94 17.59 69.41 19.18 66.86C22.74 61.15 24.52 55.82 25.36 52.57C27.34 52.27 29.27 51.63 31.12 50.64C32.78 49.75 33.79 48.15 34.02 46.42C41.88 39.29 45.52 26.44 45.73 25.69C46.15 24.15 45.43 22.57 44.07 21.85C45.16 12.2 41.6 7.35 39.45 5.37C39.61 4.44 39.25 3.45 38.43 2.92L34.49 0.33C33.45 -0.34 32.16 0 31.59 1.1L29.71 4.74C29.15 5.84 29.65 7.01 30.83 7.36L35.29 8.68C36.42 9.02 37.78 8.48 38.42 7.48C40.2 9.36 42.76 13.54 41.88 21.52C40.67 21.75 39.62 22.63 39.27 23.91C38.2 27.77 35.1 35.73 30.5 40.51C29.04 39.95 27.36 39.97 25.86 40.77C24.89 41.29 23.94 41.55 22.97 41.57L22.76 41.57C21.74 41.55 20.73 41.26 19.7 40.69C18.25 39.87 16.59 39.79 15.13 40.31C10.63 35.51 7.6 27.71 6.54 23.91C6.19 22.64 5.15 21.75 3.94 21.52C3.05 13.54 5.62 9.36 7.4 7.48C8.04 8.48 9.39 9.02 10.52 8.68L14.99 7.37C16.17 7.02 16.67 5.84 16.1 4.74L14.22 1.1C13.66 0 12.36 -0.34 11.33 0.33L7.38 2.92C6.57 3.45 6.2 4.44 6.36 5.37C4.22 7.35 0.65 12.21 1.74 21.85C0.39 22.57 -0.33 24.15 0.09 25.7C0.29 26.43 3.82 38.87 11.42 46.06ZM63.09 23.12C65.66 23.12 67.74 25.2 67.74 27.78C67.74 30.36 65.66 32.44 63.09 32.44C60.52 32.44 58.44 30.36 58.44 27.78C58.44 25.2 60.52 23.12 63.09 23.12Z" />
			</g>
		</g>
	</g>
</svg>