<svg version="1.2" baseProfile="tiny-ps" xmlns="http://www.w3.org/2000/svg" viewBox="0 0 102 89" width="102" height="89">
	<title>Group 7</title>
	<style>
		tspan { white-space:pre }
		.shp0 { fill: #ffffff } 
	</style>
	<g id="Group 7">
		<g id="Text">
			<g id="Icon">
				<path id="Icon" class="shp0" d="M84.57 10.18C83.47 10.18 82.58 11.06 82.58 12.15C82.58 13.24 83.47 14.12 84.57 14.12C85.67 14.12 86.56 13.24 86.56 12.15C86.56 11.06 85.67 10.18 84.57 10.18ZM94.92 8.2C90.16 2.91 83.57 0 76.35 0C68.46 0 61.25 3.03 55.52 8.75C53.52 10.74 52.03 12.73 51 14.31C49.97 12.73 48.48 10.74 46.48 8.75C40.75 3.03 33.54 0 25.65 0C10.54 0 0 12.5 0 27.37C0 47.45 21.52 64.36 49.7 88.52C50.07 88.84 50.53 89 51 89C51.47 89 51.93 88.84 52.3 88.52C80.55 64.31 102 47.43 102 27.37C102 20.08 99.49 13.27 94.92 8.2ZM51 84.42C24.39 61.65 3.98 45.29 3.98 27.37C3.98 14.01 13.3 3.94 25.65 3.94C32.51 3.94 38.53 6.46 43.55 11.43C47.38 15.21 49.16 19.08 49.18 19.12C49.5 19.82 50.21 20.28 51 20.28C51 20.28 51 20.28 51 20.28C51.78 20.28 52.5 19.82 52.82 19.12C52.84 19.08 54.62 15.21 58.45 11.43C63.47 6.46 69.49 3.94 76.35 3.94C88.7 3.94 98.02 14.01 98.02 27.37C98.02 45.69 76.26 62.8 51 84.42ZM91.54 17.2C91.03 16.24 89.82 15.87 88.85 16.37C87.87 16.88 87.5 18.07 88.01 19.03C89.32 21.51 90.05 24.47 90.05 27.37C90.05 33.07 87.31 39.11 81.42 46.39C80.74 47.24 80.88 48.48 81.74 49.16C82.6 49.84 83.85 49.69 84.54 48.85C91.01 40.83 94.03 34.01 94.03 27.37C94.03 23.8 93.17 20.28 91.54 17.2ZM70.12 37.77L58.97 37.77L58.97 26.73C58.97 25.65 58.08 24.76 56.98 24.76L45.02 24.76C43.92 24.76 43.03 25.65 43.03 26.73L43.03 37.77L31.87 37.77C30.77 37.77 29.88 38.65 29.88 39.74L29.88 51.56C29.88 52.65 30.77 53.53 31.87 53.53L43.03 53.53L43.03 64.57C43.03 65.65 43.92 66.54 45.02 66.54L56.98 66.54C58.08 66.54 58.97 65.65 58.97 64.57L58.97 53.53L70.12 53.53C71.23 53.53 72.12 52.65 72.12 51.56L72.12 39.74C72.12 38.65 71.23 37.77 70.12 37.77ZM68.13 49.59L56.98 49.59C55.88 49.59 54.98 50.47 54.98 51.56L54.98 62.6L47.02 62.6L47.02 51.56C47.02 50.47 46.12 49.59 45.02 49.59L33.87 49.59L33.87 41.71L45.02 41.71C46.12 41.71 47.02 40.83 47.02 39.74L47.02 28.7L54.98 28.7L54.98 39.74C54.98 40.83 55.88 41.71 56.98 41.71L68.13 41.71L68.13 49.59Z" />
			</g>
		</g>
	</g>
</svg>